<svg width="20" height="20" viewBox="0 0 24 24" fill="none" xmlns="http://www.w3.org/2000/svg">
<path d="M8.25195 15.5706L8.73543 15.0871V14.6036L9.70239 14.1201L10.1859 14.6036L11.1528 14.1201L11.6363 14.6036V15.5706L12.6033 16.054V16.5375L11.6363 17.021V17.5045V17.9879L10.6693 17.021L11.1528 16.5375L10.6693 15.5706H9.70239L9.21891 16.054L9.70239 17.021H10.6693L11.6363 17.9879H9.70239H9.21891L8.25195 17.021V15.5706Z" fill="#212121"/>
<path d="M12.1202 11.7024L12.6037 10.7354V10.252H13.5706H14.5376H15.0211L15.5045 10.7354L15.988 11.7024V12.1859V12.6693L15.5045 13.1528V13.6363L14.5376 14.1198L14.0541 12.6693H15.0211L14.5376 11.2189H13.5706L13.0872 11.7024L13.5706 12.6693H14.0541L14.5376 14.1198L14.0541 13.6363L13.5706 14.1198L12.6037 13.6363V13.1528L11.6367 12.6693L12.1202 11.7024Z" fill="#212121"/>
<path d="M10.2304 15.0741C10.0122 15.0741 9.79885 15.1389 9.6174 15.2602C9.43595 15.3815 9.29453 15.5539 9.21102 15.7557C9.1275 15.9574 9.10565 16.1794 9.14823 16.3935C9.1908 16.6077 9.29589 16.8044 9.4502 16.9588C9.60451 17.1132 9.80112 17.2184 10.0152 17.261C10.2292 17.3036 10.451 17.2817 10.6527 17.1982C10.8543 17.1146 11.0266 16.9731 11.1478 16.7915C11.2691 16.61 11.3338 16.3965 11.3338 16.1782C11.3335 15.8854 11.2171 15.6048 11.0102 15.3978C10.8034 15.1909 10.5229 15.0744 10.2304 15.0741ZM10.2304 16.7726C10.1129 16.7726 9.99803 16.7378 9.90033 16.6725C9.80263 16.6071 9.72647 16.5143 9.68151 16.4057C9.63654 16.297 9.62477 16.1775 9.6477 16.0622C9.67062 15.9469 9.72721 15.8409 9.8103 15.7578C9.89339 15.6746 9.99925 15.618 10.1145 15.5951C10.2298 15.5722 10.3492 15.5839 10.4578 15.6289C10.5663 15.6739 10.6591 15.7501 10.7244 15.8479C10.7897 15.9456 10.8245 16.0606 10.8245 16.1782C10.8245 16.3358 10.7619 16.487 10.6505 16.5985C10.5391 16.71 10.388 16.7726 10.2304 16.7726ZM12.6464 15.7202C12.6392 15.6843 12.6244 15.6504 12.6029 15.6207C12.5815 15.5911 12.5539 15.5664 12.5221 15.5484L11.9324 15.2119L11.93 14.5471C11.9299 14.5103 11.9218 14.4738 11.9062 14.4404C11.8906 14.407 11.868 14.3773 11.8399 14.3535C11.6022 14.1523 11.3286 13.9981 11.0335 13.8989C10.9999 13.8876 10.9642 13.8834 10.9288 13.8866C10.8935 13.8899 10.8592 13.9005 10.8281 13.9178L10.2304 14.2518L9.63267 13.9176C9.60161 13.9002 9.56724 13.8895 9.53179 13.8862C9.49633 13.8829 9.46059 13.8871 9.42685 13.8985C9.13168 13.9981 8.85807 14.1527 8.62053 14.3544C8.59248 14.3781 8.56991 14.4077 8.55438 14.4411C8.53885 14.4744 8.53073 14.5108 8.53056 14.5476L8.52759 15.213L7.93877 15.5486C7.90692 15.5667 7.87934 15.5915 7.85792 15.6212C7.8365 15.6509 7.82174 15.6849 7.81464 15.7208C7.75469 16.023 7.75469 16.334 7.81464 16.6361C7.82179 16.672 7.83658 16.7059 7.858 16.7355C7.87942 16.7652 7.90697 16.7899 7.93877 16.8079L8.52908 17.1444L8.53141 17.8092C8.53154 17.8461 8.53967 17.8825 8.55524 17.9159C8.57081 17.9493 8.59345 17.979 8.62159 18.0028C8.85922 18.204 9.13283 18.3582 9.42791 18.4574C9.46157 18.4687 9.49723 18.4729 9.53261 18.4697C9.56798 18.4664 9.60228 18.4558 9.63331 18.4385L10.2304 18.1045L10.8275 18.4387C10.8586 18.4561 10.8929 18.4668 10.9284 18.4701C10.9639 18.4734 10.9996 18.4692 11.0333 18.4578C11.3285 18.3582 11.6021 18.2036 11.8397 18.002C11.8677 17.9782 11.8903 17.9486 11.9058 17.9152C11.9213 17.8819 11.9295 17.8455 11.9296 17.8087L11.9326 17.1433L12.5227 16.8077C12.5545 16.7896 12.5821 16.7648 12.6035 16.7351C12.625 16.7054 12.6397 16.6714 12.6468 16.6355C12.7066 16.3333 12.7065 16.0223 12.6464 15.7202ZM12.1662 16.4247L11.5958 16.7491C11.5553 16.7721 11.5219 16.8058 11.4993 16.8465C11.4878 16.8678 11.4757 16.8875 11.4632 16.9077C11.4381 16.9478 11.4246 16.9942 11.4244 17.0416L11.4214 17.6856C11.2842 17.789 11.1338 17.8737 10.9743 17.9376L10.3983 17.6151C10.3603 17.5938 10.3175 17.5826 10.2739 17.5826H10.2678C10.2436 17.5826 10.219 17.5826 10.1948 17.5826C10.1493 17.5816 10.1043 17.5926 10.0645 17.6147L9.48775 17.9366C9.328 17.873 9.17733 17.7886 9.0396 17.6856L9.03727 17.0436C9.03707 16.9961 9.02362 16.9496 8.99844 16.9094C8.98613 16.8894 8.97383 16.8688 8.96237 16.8482C8.93973 16.8077 8.90641 16.7742 8.86603 16.7514L8.29524 16.4251C8.27307 16.2614 8.27307 16.0954 8.29524 15.9317L8.86561 15.6072C8.90606 15.5843 8.93946 15.5506 8.96216 15.51C8.97361 15.4888 8.98571 15.4688 8.99823 15.4486C9.02337 15.4085 9.03682 15.3621 9.03706 15.3147L9.03939 14.6707C9.17671 14.5676 9.32704 14.4832 9.48647 14.4195L10.0626 14.742C10.1024 14.7644 10.1475 14.7755 10.1931 14.7743C10.2173 14.7743 10.2419 14.7743 10.2661 14.7743C10.3116 14.7754 10.3565 14.7643 10.3963 14.7423L10.9731 14.4197C11.1328 14.4833 11.2835 14.5677 11.4212 14.6707L11.4236 15.3128C11.4237 15.3602 11.4372 15.4067 11.4624 15.4469C11.4747 15.4669 11.487 15.4875 11.4985 15.5081C11.5211 15.5486 11.5544 15.5821 11.5948 15.6049L12.1656 15.9304C12.188 16.0944 12.1883 16.2606 12.1662 16.4247Z" fill="#212121"/>
<path d="M14.011 10.9575C13.7928 10.9575 13.5794 11.0223 13.398 11.1436C13.2165 11.2649 13.0751 11.4373 12.9916 11.6391C12.9081 11.8408 12.8862 12.0628 12.9288 12.277C12.9714 12.4911 13.0765 12.6878 13.2308 12.8423C13.3851 12.9967 13.5817 13.1018 13.7957 13.1444C14.0098 13.187 14.2316 13.1651 14.4332 13.0816C14.6349 12.998 14.8072 12.8565 14.9284 12.675C15.0497 12.4934 15.1144 12.2799 15.1144 12.0616C15.114 11.7689 14.9977 11.4882 14.7908 11.2813C14.584 11.0743 14.3035 10.9579 14.011 10.9575ZM14.011 12.6561C13.8935 12.6561 13.7786 12.6212 13.6809 12.5559C13.5832 12.4905 13.5071 12.3977 13.4621 12.2891C13.4171 12.1804 13.4054 12.0609 13.4283 11.9456C13.4512 11.8303 13.5078 11.7243 13.5909 11.6412C13.674 11.5581 13.7798 11.5014 13.8951 11.4785C14.0103 11.4556 14.1298 11.4673 14.2384 11.5123C14.3469 11.5573 14.4397 11.6335 14.505 11.7313C14.5703 11.8291 14.6051 11.944 14.6051 12.0616C14.6051 12.2192 14.5425 12.3705 14.4311 12.4819C14.3197 12.5934 14.1686 12.6561 14.011 12.6561ZM16.427 11.6036C16.4198 11.5677 16.405 11.5338 16.3835 11.5042C16.3621 11.4745 16.3345 11.4499 16.3026 11.4318L15.713 11.0953L15.7106 10.4306C15.7105 10.3937 15.7024 10.3573 15.6868 10.3238C15.6712 10.2904 15.6486 10.2607 15.6204 10.2369C15.3828 10.0357 15.1092 9.8815 14.8141 9.78235C14.7805 9.77099 14.7448 9.7668 14.7094 9.77006C14.6741 9.77331 14.6398 9.78394 14.6087 9.80125L14.011 10.1352L13.4133 9.80104C13.3822 9.78363 13.3478 9.77294 13.3124 9.76964C13.2769 9.76635 13.2412 9.77054 13.2074 9.78193C12.9123 9.88149 12.6387 10.0362 12.4011 10.2378C12.3731 10.2616 12.3505 10.2912 12.335 10.3245C12.3194 10.3579 12.3113 10.3942 12.3111 10.431L12.3082 11.0964L11.7194 11.4321C11.6875 11.4501 11.6599 11.4749 11.6385 11.5046C11.6171 11.5343 11.6023 11.5683 11.5952 11.6042C11.5353 11.9064 11.5353 12.2174 11.5952 12.5195C11.6024 12.5554 11.6172 12.5893 11.6386 12.619C11.66 12.6486 11.6876 12.6733 11.7194 12.6913L12.3097 13.0278L12.312 13.6926C12.3121 13.7295 12.3203 13.7659 12.3358 13.7993C12.3514 13.8328 12.374 13.8624 12.4022 13.8862C12.6398 14.0874 12.9134 14.2417 13.2085 14.3408C13.2422 14.3522 13.2778 14.3563 13.3132 14.3531C13.3486 14.3498 13.3829 14.3392 13.4139 14.3219L14.011 13.9879L14.6081 14.3221C14.6392 14.3395 14.6735 14.3502 14.709 14.3535C14.7444 14.3568 14.7802 14.3526 14.8139 14.3412C15.1091 14.2417 15.3827 14.087 15.6202 13.8854C15.6483 13.8616 15.6709 13.832 15.6864 13.7986C15.7019 13.7653 15.71 13.729 15.7102 13.6922L15.7132 13.0268L16.3033 12.6911C16.3351 12.673 16.3627 12.6483 16.3841 12.6186C16.4055 12.5888 16.4203 12.5548 16.4274 12.5189C16.4872 12.2167 16.4871 11.9057 16.427 11.6036ZM15.9468 12.3081L15.3764 12.6325C15.3359 12.6555 15.3025 12.6892 15.2799 12.7299C15.2684 12.7512 15.2563 12.7709 15.2438 12.7911C15.2187 12.8313 15.2052 12.8777 15.205 12.9251L15.202 13.569C15.0647 13.6724 14.9144 13.7571 14.7549 13.821L14.1788 13.4985C14.1408 13.4772 14.098 13.4661 14.0545 13.466H14.0483C14.0241 13.466 13.9995 13.466 13.9753 13.466C13.9298 13.465 13.8849 13.476 13.8451 13.4981L13.2683 13.82C13.1086 13.7564 12.9579 13.672 12.8202 13.569L12.8179 12.927C12.8177 12.8795 12.8042 12.833 12.779 12.7928C12.7667 12.7728 12.7544 12.7522 12.743 12.7316C12.7203 12.6911 12.687 12.6577 12.6466 12.6348L12.0758 12.3085C12.0537 12.1448 12.0537 11.9788 12.0758 11.8151L12.6462 11.4907C12.6866 11.4677 12.72 11.434 12.7427 11.3934C12.7542 11.3722 12.7663 11.3522 12.7788 11.3321C12.804 11.2919 12.8174 11.2455 12.8176 11.1981L12.82 10.5541C12.9573 10.4511 13.1076 10.3666 13.2671 10.303L13.8432 10.6255C13.8829 10.6478 13.928 10.659 13.9736 10.6577C13.9978 10.6577 14.0225 10.6577 14.0466 10.6577C14.0921 10.6588 14.1371 10.6477 14.1769 10.6257L14.7537 10.3032C14.9134 10.3668 15.0641 10.4511 15.2018 10.5541L15.2041 11.1962C15.2043 11.2436 15.2178 11.2901 15.243 11.3304C15.2553 11.3503 15.2676 11.3709 15.279 11.3915C15.3017 11.432 15.335 11.4655 15.3754 11.4883L15.9462 11.8138C15.9686 11.9778 15.9688 12.144 15.9468 12.3081Z" fill="#212121"/>
<path d="M10.2304 15.0741C10.0122 15.0741 9.79885 15.1389 9.6174 15.2602C9.43595 15.3815 9.29453 15.5539 9.21102 15.7557C9.1275 15.9574 9.10565 16.1794 9.14823 16.3935C9.1908 16.6077 9.29589 16.8044 9.4502 16.9588C9.60451 17.1132 9.80112 17.2184 10.0152 17.261C10.2292 17.3036 10.451 17.2817 10.6527 17.1982C10.8543 17.1146 11.0266 16.9731 11.1478 16.7915C11.2691 16.61 11.3338 16.3965 11.3338 16.1782C11.3335 15.8854 11.2171 15.6048 11.0102 15.3978C10.8034 15.1909 10.5229 15.0744 10.2304 15.0741ZM10.2304 16.7726C10.1129 16.7726 9.99803 16.7378 9.90033 16.6725C9.80263 16.6071 9.72647 16.5143 9.68151 16.4057C9.63654 16.297 9.62477 16.1775 9.6477 16.0622C9.67062 15.9469 9.72721 15.8409 9.8103 15.7578C9.89339 15.6746 9.99925 15.618 10.1145 15.5951C10.2298 15.5722 10.3492 15.5839 10.4578 15.6289C10.5663 15.6739 10.6591 15.7501 10.7244 15.8479C10.7897 15.9456 10.8245 16.0606 10.8245 16.1782C10.8245 16.3358 10.7619 16.487 10.6505 16.5985C10.5391 16.71 10.388 16.7726 10.2304 16.7726ZM12.6464 15.7202C12.6392 15.6843 12.6244 15.6504 12.6029 15.6207C12.5815 15.5911 12.5539 15.5664 12.5221 15.5484L11.9324 15.2119L11.93 14.5471C11.9299 14.5103 11.9218 14.4738 11.9062 14.4404C11.8906 14.407 11.868 14.3773 11.8399 14.3535C11.6022 14.1523 11.3286 13.9981 11.0335 13.8989C10.9999 13.8876 10.9642 13.8834 10.9288 13.8866C10.8935 13.8899 10.8592 13.9005 10.8281 13.9178L10.2304 14.2518L9.63267 13.9176C9.60161 13.9002 9.56724 13.8895 9.53179 13.8862C9.49633 13.8829 9.46059 13.8871 9.42685 13.8985C9.13168 13.9981 8.85807 14.1527 8.62053 14.3544C8.59248 14.3781 8.56991 14.4077 8.55438 14.4411C8.53885 14.4744 8.53073 14.5108 8.53056 14.5476L8.52759 15.213L7.93877 15.5486C7.90692 15.5667 7.87934 15.5915 7.85792 15.6212C7.8365 15.6509 7.82174 15.6849 7.81464 15.7208C7.75469 16.023 7.75469 16.334 7.81464 16.6361C7.82179 16.672 7.83658 16.7059 7.858 16.7355C7.87942 16.7652 7.90697 16.7899 7.93877 16.8079L8.52908 17.1444L8.53141 17.8092C8.53154 17.8461 8.53967 17.8825 8.55524 17.9159C8.57081 17.9493 8.59345 17.979 8.62159 18.0028C8.85922 18.204 9.13283 18.3582 9.42791 18.4574C9.46157 18.4687 9.49723 18.4729 9.53261 18.4697C9.56798 18.4664 9.60228 18.4558 9.63331 18.4385L10.2304 18.1045L10.8275 18.4387C10.8586 18.4561 10.8929 18.4668 10.9284 18.4701C10.9639 18.4734 10.9996 18.4692 11.0333 18.4578C11.3285 18.3582 11.6021 18.2036 11.8397 18.002C11.8677 17.9782 11.8903 17.9486 11.9058 17.9152C11.9213 17.8819 11.9295 17.8455 11.9296 17.8087L11.9326 17.1433L12.5227 16.8077C12.5545 16.7896 12.5821 16.7648 12.6035 16.7351C12.625 16.7054 12.6397 16.6714 12.6468 16.6355C12.7066 16.3333 12.7065 16.0223 12.6464 15.7202ZM12.1662 16.4247L11.5958 16.7491C11.5553 16.7721 11.5219 16.8058 11.4993 16.8465C11.4878 16.8678 11.4757 16.8875 11.4632 16.9077C11.4381 16.9478 11.4246 16.9942 11.4244 17.0416L11.4214 17.6856C11.2842 17.789 11.1338 17.8737 10.9743 17.9376L10.3983 17.6151C10.3603 17.5938 10.3175 17.5826 10.2739 17.5826H10.2678C10.2436 17.5826 10.219 17.5826 10.1948 17.5826C10.1493 17.5816 10.1043 17.5926 10.0645 17.6147L9.48775 17.9366C9.328 17.873 9.17733 17.7886 9.0396 17.6856L9.03727 17.0436C9.03707 16.9961 9.02362 16.9496 8.99844 16.9094C8.98613 16.8894 8.97383 16.8688 8.96237 16.8482C8.93973 16.8077 8.90641 16.7742 8.86603 16.7514L8.29524 16.4251C8.27307 16.2614 8.27307 16.0954 8.29524 15.9317L8.86561 15.6072C8.90606 15.5843 8.93946 15.5506 8.96216 15.51C8.97361 15.4888 8.98571 15.4688 8.99823 15.4486C9.02337 15.4085 9.03682 15.3621 9.03706 15.3147L9.03939 14.6707C9.17671 14.5676 9.32704 14.4832 9.48647 14.4195L10.0626 14.742C10.1024 14.7644 10.1475 14.7755 10.1931 14.7743C10.2173 14.7743 10.2419 14.7743 10.2661 14.7743C10.3116 14.7754 10.3565 14.7643 10.3963 14.7423L10.9731 14.4197C11.1328 14.4833 11.2835 14.5677 11.4212 14.6707L11.4236 15.3128C11.4237 15.3602 11.4372 15.4067 11.4624 15.4469C11.4747 15.4669 11.487 15.4875 11.4985 15.5081C11.5211 15.5486 11.5544 15.5821 11.5948 15.6049L12.1656 15.9304C12.188 16.0944 12.1883 16.2606 12.1662 16.4247Z" stroke="#212121" stroke-width="0.1"/>
<path d="M14.011 10.9575C13.7928 10.9575 13.5794 11.0223 13.398 11.1436C13.2165 11.2649 13.0751 11.4373 12.9916 11.6391C12.9081 11.8408 12.8862 12.0628 12.9288 12.277C12.9714 12.4911 13.0765 12.6878 13.2308 12.8423C13.3851 12.9967 13.5817 13.1018 13.7957 13.1444C14.0098 13.187 14.2316 13.1651 14.4332 13.0816C14.6349 12.998 14.8072 12.8565 14.9284 12.675C15.0497 12.4934 15.1144 12.2799 15.1144 12.0616C15.114 11.7689 14.9977 11.4882 14.7908 11.2813C14.584 11.0743 14.3035 10.9579 14.011 10.9575ZM14.011 12.6561C13.8935 12.6561 13.7786 12.6212 13.6809 12.5559C13.5832 12.4905 13.5071 12.3977 13.4621 12.2891C13.4171 12.1804 13.4054 12.0609 13.4283 11.9456C13.4512 11.8303 13.5078 11.7243 13.5909 11.6412C13.674 11.5581 13.7798 11.5014 13.8951 11.4785C14.0103 11.4556 14.1298 11.4673 14.2384 11.5123C14.3469 11.5573 14.4397 11.6335 14.505 11.7313C14.5703 11.8291 14.6051 11.944 14.6051 12.0616C14.6051 12.2192 14.5425 12.3705 14.4311 12.4819C14.3197 12.5934 14.1686 12.6561 14.011 12.6561ZM16.427 11.6036C16.4198 11.5677 16.405 11.5338 16.3835 11.5042C16.3621 11.4745 16.3345 11.4499 16.3026 11.4318L15.713 11.0953L15.7106 10.4306C15.7105 10.3937 15.7024 10.3573 15.6868 10.3238C15.6712 10.2904 15.6486 10.2607 15.6204 10.2369C15.3828 10.0357 15.1092 9.8815 14.8141 9.78235C14.7805 9.77099 14.7448 9.7668 14.7094 9.77006C14.6741 9.77331 14.6398 9.78394 14.6087 9.80125L14.011 10.1352L13.4133 9.80104C13.3822 9.78363 13.3478 9.77294 13.3124 9.76964C13.2769 9.76635 13.2412 9.77054 13.2074 9.78193C12.9123 9.88149 12.6387 10.0362 12.4011 10.2378C12.3731 10.2616 12.3505 10.2912 12.335 10.3245C12.3194 10.3579 12.3113 10.3942 12.3111 10.431L12.3082 11.0964L11.7194 11.4321C11.6875 11.4501 11.6599 11.4749 11.6385 11.5046C11.6171 11.5343 11.6023 11.5683 11.5952 11.6042C11.5353 11.9064 11.5353 12.2174 11.5952 12.5195C11.6024 12.5554 11.6172 12.5893 11.6386 12.619C11.66 12.6486 11.6876 12.6733 11.7194 12.6913L12.3097 13.0278L12.312 13.6926C12.3121 13.7295 12.3203 13.7659 12.3358 13.7993C12.3514 13.8328 12.374 13.8624 12.4022 13.8862C12.6398 14.0874 12.9134 14.2417 13.2085 14.3408C13.2422 14.3522 13.2778 14.3563 13.3132 14.3531C13.3486 14.3498 13.3829 14.3392 13.4139 14.3219L14.011 13.9879L14.6081 14.3221C14.6392 14.3395 14.6735 14.3502 14.709 14.3535C14.7444 14.3568 14.7802 14.3526 14.8139 14.3412C15.1091 14.2417 15.3827 14.087 15.6202 13.8854C15.6483 13.8616 15.6709 13.832 15.6864 13.7986C15.7019 13.7653 15.71 13.729 15.7102 13.6922L15.7132 13.0268L16.3033 12.6911C16.3351 12.673 16.3627 12.6483 16.3841 12.6186C16.4055 12.5888 16.4203 12.5548 16.4274 12.5189C16.4872 12.2167 16.4871 11.9057 16.427 11.6036ZM15.9468 12.3081L15.3764 12.6325C15.3359 12.6555 15.3025 12.6892 15.2799 12.7299C15.2684 12.7512 15.2563 12.7709 15.2438 12.7911C15.2187 12.8313 15.2052 12.8777 15.205 12.9251L15.202 13.569C15.0647 13.6724 14.9144 13.7571 14.7549 13.821L14.1788 13.4985C14.1408 13.4772 14.098 13.4661 14.0545 13.466H14.0483C14.0241 13.466 13.9995 13.466 13.9753 13.466C13.9298 13.465 13.8849 13.476 13.8451 13.4981L13.2683 13.82C13.1086 13.7564 12.9579 13.672 12.8202 13.569L12.8179 12.927C12.8177 12.8795 12.8042 12.833 12.779 12.7928C12.7667 12.7728 12.7544 12.7522 12.743 12.7316C12.7203 12.6911 12.687 12.6577 12.6466 12.6348L12.0758 12.3085C12.0537 12.1448 12.0537 11.9788 12.0758 11.8151L12.6462 11.4907C12.6866 11.4677 12.72 11.434 12.7427 11.3934C12.7542 11.3722 12.7663 11.3522 12.7788 11.3321C12.804 11.2919 12.8174 11.2455 12.8176 11.1981L12.82 10.5541C12.9573 10.4511 13.1076 10.3666 13.2671 10.303L13.8432 10.6255C13.8829 10.6478 13.928 10.659 13.9736 10.6577C13.9978 10.6577 14.0225 10.6577 14.0466 10.6577C14.0921 10.6588 14.1371 10.6477 14.1769 10.6257L14.7537 10.3032C14.9134 10.3668 15.0641 10.4511 15.2018 10.5541L15.2041 11.1962C15.2043 11.2436 15.2178 11.2901 15.243 11.3304C15.2553 11.3503 15.2676 11.3709 15.279 11.3915C15.3017 11.432 15.335 11.4655 15.3754 11.4883L15.9462 11.8138C15.9686 11.9778 15.9688 12.144 15.9468 12.3081Z" stroke="#212121" stroke-width="0.1"/>
<path d="M19.8518 16.0539V9.53933C19.8518 9.12767 20.1856 8.79395 20.5972 8.79395H21.7251C22.1367 8.79395 22.4755 9.12767 22.4755 9.53933V16.2477C22.4755 16.6594 22.1367 16.9931 21.7251 16.9931H20.5972C20.1856 16.9931 19.8518 16.4656 19.8518 16.0539ZM19.8518 16.0539V9.7687H18.4052V16.0539H19.8518ZM1.96696 18.5092H2.95876C3.37042 18.5092 3.70413 18.1755 3.70413 17.7639V11.8009C3.70413 11.3892 3.37042 11.0555 2.95876 11.0555H1.96696C1.5553 11.0555 1 11.3892 1 11.8009V17.7639C1 18.1755 1.5553 18.5092 1.96696 18.5092ZM11.9791 5.61627H17.1968C17.6084 5.61627 17.9421 5.28255 17.9421 4.87089V3.96696C17.9421 3.5553 17.6084 3 17.1968 3H11.9791C11.5675 3 11.2338 3.5553 11.2338 3.96696V4.87089C11.2338 5.28255 11.5675 5.61627 11.9791 5.61627ZM4.52538 12.5462H6.01613V17.0185H4.52538V12.5462ZM12.7245 6.58323H16.4514V8.07398H12.7245V6.58323ZM6.01613 10.7429C6.01613 10.3312 6.34984 9.99753 6.7615 9.99753H9.36656C9.57036 9.99753 9.76526 9.91409 9.90592 9.76662L11.3002 8.30489C11.4409 8.15742 11.6358 8.07398 11.8396 8.07398H17.1968C17.6084 8.07398 17.9421 8.4077 17.9421 8.81936V16.5616C17.9421 16.9733 17.6084 17.307 17.1968 17.307H15.9929C15.7745 17.307 15.5671 17.4028 15.4255 17.5691L13.5784 19.7379C13.4368 19.9042 13.2294 20 13.011 20H6.7615C6.34984 20 6.01613 19.6663 6.01613 19.2546V10.7429Z" stroke="#212121" stroke-width="1.6"/>
</svg>
